<?xml version="1.0" encoding="utf-8"?><svg version="1.1" id="Layer_1" xmlns="http://www.w3.org/2000/svg" xmlns:xlink="http://www.w3.org/1999/xlink" x="0px" y="0px" viewBox="0 0 77.78 122.88" style="enable-background:new 0 0 77.78 122.88" xml:space="preserve"><g><path d="M3.05,87.53L0.16,98.06c-0.36,1.32,0.41,2.74,1.72,3.14l10.08,3.11l-10.08,3.11c-1.31,0.41-2.09,1.82-1.72,3.14l2.89,10.53 c0.36,1.32,1.73,2.08,3.04,1.67l32.83-10.13l32.83,10.13c1.31,0.41,2.68-0.35,3.04-1.67l2.89-10.53c0.36-1.32-0.41-2.74-1.72-3.14 l-10.08-3.11l10.08-3.11c1.31-0.41,2.09-1.82,1.72-3.14L74.8,87.53c-0.36-1.32-1.73-2.07-3.04-1.67L38.92,95.99L6.09,85.86 C4.78,85.45,3.41,86.21,3.05,87.53L3.05,87.53z M12.03,21.81c1.44,10.24,3.67,17.99,7.46,20.86c0.07-3.47,0.42-6.89,1.09-10.23 c2.19-10.94,5.71-11.53,9.09-19.62C31.33,8.85,31.79,4.61,30.78,0C42.91,2.1,54.17,20.38,57,43.63c3.02-3.94,4.83-8.5,5.17-13.78 c5.35,5.48,8,11.99,8.99,19.14c2,13.68-2.2,22.54-13.3,26.05c2.47-5.67,1.9-10.05-0.69-15.83c-1.1-2.45-2.52-4.59-4.33-6.37 c-0.79,5.62-2.02,9.87-4.09,11.45c-0.04-1.91-0.23-3.78-0.6-5.61c-1.2-6.01-3.13-6.33-4.99-10.77c-0.91-2.18-1.16-4.51-0.61-7.04 c-6.65,1.15-12.83,11.19-14.39,23.94c-1.66-2.16-2.65-4.66-2.84-7.56c-2.93,3-4.39,6.58-4.94,10.5c-0.55,3.77-0.25,6.87,0.97,9.27 c-8.53-0.98-14.26-5.73-17.88-13.41c-5.19-11-4.26-19.19,0.65-30.18C6.13,28.96,8.73,25.06,12.03,21.81L12.03,21.81z"/></g></svg>