<svg xmlns="http://www.w3.org/2000/svg" xmlns:xlink="http://www.w3.org/1999/xlink" version="1.1" x="0px" y="0px" viewBox="0 0 64 80" style="enable-background:new 0 0 64 64;" xml:space="preserve"><g><path d="M63,50.4h-4.4l-10.6-9.9c-2.6-2.5-6.5-2.3-9,0.4l-4.4,4.8l0,0l-2.1,2.2l2.4,2l-5.9-4.8l-5-4c-2.4-1.9-5.8-2-8.3-0.1   l-12,9.3H1c-0.5,0-1,0.4-1,1c0,0.5,0.4,1,1,1H63c0.5,0,1-0.4,1-1C64,50.8,63.6,50.4,63,50.4z"/><path d="M28,21.7c-5.2,3.6-4.9,9.4-4.9,9.4c2.4-4.9,9.8-8.7,9.8-8.7c3.6,1,8.9,6.1,8.9,6.1c0.5-5.9-5-7.6-5-7.6   c3.4-1.6,8-1.2,8-1.2c-3.3-5.2-8.9-1.6-8.9-1.6c0.2-3.3,3.4-6.3,3.4-6.3c-6.4-1.1-6.9,5.4-6.9,5.4s-1-2.8-3.9-3.5   c-4.2-1-6.5,2.9-6.5,2.9c5.9-1,8.1,1.6,8.1,1.6c-8.8-1-10.5,5.4-10.5,5.4C24.4,20.6,28,21.7,28,21.7z"/><path d="M32.6,46.6l1.3-1.5L34,45l1.1-1.2c1.4-7.6-0.1-16.1-1-20.2c-0.4-0.2-0.8-0.4-1.2-0.5c-0.2,0.1-0.6,0.3-1,0.6   c0.7,3.9,1.8,13.5-2.2,20.6L32.6,46.6z"/><path d="M55.7,23c2,0,3.6-1.6,3.6-3.6c0-2-1.6-3.6-3.6-3.6c-2,0-3.6,1.6-3.6,3.6C52.1,21.4,53.8,23,55.7,23z"/><path d="M55.7,14.8c0.3,0,0.5-0.2,0.5-0.5v-1.9c0-0.3-0.2-0.5-0.5-0.5c-0.3,0-0.5,0.2-0.5,0.5v1.9C55.2,14.6,55.5,14.8,55.7,14.8z"/><path d="M51.8,16.2c0.1,0.1,0.2,0.1,0.3,0.1c0.1,0,0.2,0,0.3-0.1c0.2-0.2,0.2-0.5,0-0.7l-1.3-1.3c-0.2-0.2-0.5-0.2-0.7,0   c-0.2,0.2-0.2,0.5,0,0.7L51.8,16.2z"/><path d="M48.8,19.9h1.9c0.3,0,0.5-0.2,0.5-0.5c0-0.3-0.2-0.5-0.5-0.5h-1.9c-0.3,0-0.5,0.2-0.5,0.5C48.3,19.7,48.5,19.9,48.8,19.9z"/><path d="M51.8,22.6L50.5,24c-0.2,0.2-0.2,0.5,0,0.7c0.1,0.1,0.2,0.1,0.3,0.1c0.1,0,0.2,0,0.3-0.1l1.3-1.3c0.2-0.2,0.2-0.5,0-0.7   C52.3,22.5,52,22.5,51.8,22.6z"/><path d="M55.2,24.5v1.9c0,0.3,0.2,0.5,0.5,0.5c0.3,0,0.5-0.2,0.5-0.5v-1.9c0-0.3-0.2-0.5-0.5-0.5C55.5,24,55.2,24.2,55.2,24.5z"/><path d="M59,22.6c-0.2,0.2-0.2,0.5,0,0.7l1.3,1.3c0.1,0.1,0.2,0.1,0.3,0.1c0.1,0,0.2,0,0.3-0.1c0.2-0.2,0.2-0.5,0-0.7l-1.3-1.3   C59.5,22.5,59.2,22.5,59,22.6z"/><path d="M60.3,19.4c0,0.3,0.2,0.5,0.5,0.5h1.9c0.3,0,0.5-0.2,0.5-0.5c0-0.3-0.2-0.5-0.5-0.5h-1.9C60.5,18.9,60.3,19.1,60.3,19.4z"/><path d="M59.3,16.3c0.1,0,0.2,0,0.3-0.1l1.3-1.3c0.2-0.2,0.2-0.5,0-0.7c-0.2-0.2-0.5-0.2-0.7,0L59,15.5c-0.2,0.2-0.2,0.5,0,0.7   C59.1,16.2,59.2,16.3,59.3,16.3z"/></g><text x="0" y="79" fill="#000000" font-size="5px" font-weight="bold" font-family="'Helvetica Neue', Helvetica, Arial-Unicode, Arial, Sans-serif">Created by Bloomweb</text><text x="0" y="84" fill="#000000" font-size="5px" font-weight="bold" font-family="'Helvetica Neue', Helvetica, Arial-Unicode, Arial, Sans-serif">from the Noun Project</text></svg>