<svg xmlns="http://www.w3.org/2000/svg" xmlns:xlink="http://www.w3.org/1999/xlink" version="1.1" x="0px" y="0px" viewBox="0 0 100 125" enable-background="new 0 0 100 100" xml:space="preserve"><path d="M74.806,40.132c0-13.7-11.105-24.806-24.806-24.806c-13.7,0-24.806,11.106-24.806,24.806c0,4.085,0.994,7.937,2.744,11.335  H27.93l0.172,0.32c0.05,0.096,0.101,0.189,0.152,0.283L50,92.529l22.078-41.063h-0.016C73.813,48.068,74.806,44.217,74.806,40.132z   M65.685,48.364L50,77.537L34.55,48.792c-0.036-0.067-0.072-0.133-0.107-0.201l-0.122-0.227h0.006  c-1.243-2.414-1.949-5.151-1.949-8.053c0-9.734,7.891-17.625,17.623-17.625c9.733,0,17.623,7.891,17.623,17.625  c0,2.902-0.704,5.639-1.949,8.053H65.685z"/><circle cx="50" cy="39.474" r="11.77"/><text x="0" y="115" fill="#000000" font-size="5px" font-weight="bold" font-family="'Helvetica Neue', Helvetica, Arial-Unicode, Arial, Sans-serif">Created by Round Icons</text><text x="0" y="120" fill="#000000" font-size="5px" font-weight="bold" font-family="'Helvetica Neue', Helvetica, Arial-Unicode, Arial, Sans-serif">from the Noun Project</text></svg>