<?xml version="1.0" encoding="utf-8"?><svg version="1.1" id="Layer_1" xmlns="http://www.w3.org/2000/svg" xmlns:xlink="http://www.w3.org/1999/xlink" x="0px" y="0px" viewBox="0 0 118.92 122.88" style="enable-background:new 0 0 118.92 122.88" xml:space="preserve"><g><path d="M42.81,24.29c-0.58,0.58-1.53,0.58-2.12,0c-0.58-0.58-0.58-1.53,0-2.12c1.11-1.11,0.59-2.08-0.02-3.22 c-1.12-2.09-2.4-4.49-0.21-8.27c0.41-0.71,1.33-0.96,2.04-0.54c0.71,0.41,0.96,1.33,0.54,2.04c-1.36,2.35-0.49,3.96,0.26,5.37 C44.48,19.73,45.49,21.61,42.81,24.29L42.81,24.29z M118.79,120.67c0.34,0.81-0.03,1.74-0.84,2.08c-0.81,0.34-1.74-0.03-2.08-0.84 l-27.71-64.6c-0.26,0.34-0.53,0.7-0.83,1.05c-0.93,1.12-2.12,2.34-3.62,3.72l20.65,51.72c0.32,0.81-0.08,1.74-0.89,2.06 c-0.81,0.32-1.74-0.08-2.06-0.89L80.65,63c-1.64,1.15-3.36,2.16-5.14,3.01c-5.04,2.43-10.58,3.67-16.12,3.71 c-5.53,0.04-11.07-1.12-16.14-3.5c-1.71-0.8-3.36-1.74-4.95-2.82L17.3,116.98c-0.32,0.82-1.24,1.22-2.06,0.9 c-0.82-0.32-1.22-1.24-0.9-2.06l20.89-53.27c-1.31-1.13-2.58-2.32-3.68-3.56c-0.51-0.57-0.97-1.14-1.39-1.71L3.05,120.87 c-0.34,0.81-1.28,1.18-2.08,0.84c-0.81-0.34-1.18-1.28-0.84-2.08l28.3-66.38c-2.48-3.85-4.4-8.37-5.54-13.57h-5.25 c-0.69,0-1.25-0.89-1.25-1.99c0-1.1,0.56-1.99,1.25-1.99h4.54c-0.19-1.36-0.32-2.77-0.41-4.22c0-0.05,0-0.11,0-0.16l0-0.05 c0.02-0.47,0.21-0.96,0.49-1.34l0,0c0.37-0.48,0.92-0.83,1.58-0.87c0.06,0,0.11,0,0.17,0l70.55,0.15v-0.01c0.03,0,0.02,0,0.13,0.01 c0.43,0.02,0.85,0.14,1.22,0.39c0.52,0.36,0.85,0.89,0.84,1.62l0,0.04h0l0,0.02l0,0.03h0c-0.07,1.51-0.2,2.97-0.38,4.39h4.44 c0.69,0,1.25,0.89,1.25,1.99c0,1.1-0.56,1.99-1.25,1.99h-5.13c-1.15,5.28-3.13,9.87-5.72,13.77L118.79,120.67L118.79,120.67z M51.35,80.05c0.53,3.79,1.36,6.67,2.77,7.73c0.02-1.29,0.16-2.55,0.4-3.79c0.81-4.06,2.11-4.27,3.37-7.27 c0.62-1.47,0.78-3.04,0.41-4.75c4.49,0.78,8.67,7.56,9.72,16.17c1.12-1.46,1.79-3.15,1.92-5.11c1.98,2.03,2.97,4.44,3.33,7.09 c0.74,5.07-0.81,8.36-4.93,9.66c0.92-2.1,0.7-3.73-0.25-5.87c-0.41-0.91-0.94-1.7-1.61-2.36c-0.29,2.08-0.75,3.66-1.52,4.24 c-0.01-0.71-0.09-1.4-0.22-2.08c-0.45-2.23-1.16-2.35-1.85-3.99c-0.34-0.81-0.43-1.67-0.23-2.61c-2.47,0.43-4.76,4.15-5.33,8.88 c-0.61-0.8-0.98-1.73-1.05-2.8c-1.09,1.11-1.63,2.44-1.83,3.89c-0.2,1.4-0.09,2.55,0.36,3.44c-3.16-0.36-5.28-2.12-6.63-4.97 c-1.92-4.08-1.58-7.12,0.24-11.19C49.17,82.7,50.13,81.25,51.35,80.05L51.35,80.05z M48.03,104.41l-1.07,3.91 c-0.13,0.49,0.15,1.01,0.64,1.16l3.74,1.15l-3.74,1.15c-0.49,0.15-0.77,0.67-0.64,1.16l1.07,3.9c0.13,0.49,0.64,0.77,1.13,0.62 l12.17-3.76l12.17,3.76c0.49,0.15,0.99-0.13,1.13-0.62l1.07-3.9c0.13-0.49-0.15-1.01-0.64-1.16l-3.74-1.15l3.74-1.15 c0.49-0.15,0.77-0.67,0.64-1.16l-1.07-3.9c-0.13-0.49-0.64-0.77-1.13-0.62l-12.17,3.76l-12.17-3.76 C48.67,103.64,48.16,103.92,48.03,104.41L48.03,104.41z M33.42,41.98c-0.21-0.47-0.01-1.02,0.46-1.24 c0.47-0.21,1.02-0.01,1.24,0.46c0.89,1.96,1.95,3.84,3.09,5.54c1.15,1.71,2.39,3.23,3.65,4.47c0.37,0.36,0.37,0.95,0.01,1.32 c-0.36,0.37-0.95,0.37-1.32,0.01c-1.35-1.34-2.67-2.95-3.89-4.75C35.46,46.02,34.36,44.06,33.42,41.98L33.42,41.98z M93.5,32.37 L25,32.22c1.2,15.98,9.33,26.31,19.6,31.13c4.63,2.18,9.71,3.24,14.78,3.2c5.06-0.04,10.13-1.17,14.75-3.4 C84.36,58.22,92.42,47.92,93.5,32.37L93.5,32.37z M66.68,15.74c0.58,0.58,0.58,1.53,0,2.12c-0.58,0.58-1.53,0.58-2.12,0 c-2.67-2.67-1.66-4.56-0.5-6.74c0.75-1.41,1.62-3.02,0.26-5.37c-0.41-0.71-0.17-1.63,0.54-2.04c0.71-0.41,1.63-0.17,2.04,0.54 c2.19,3.79,0.9,6.18-0.21,8.27C66.1,13.66,65.57,14.63,66.68,15.74L66.68,15.74z M78.26,22.17c0.58,0.58,0.58,1.53,0,2.12 c-0.58,0.58-1.53,0.58-2.12,0c-2.67-2.67-1.66-4.55-0.5-6.74c0.75-1.41,1.62-3.02,0.26-5.37c-0.41-0.71-0.17-1.63,0.54-2.04 c0.71-0.41,1.63-0.17,2.04,0.54c2.19,3.79,0.9,6.18-0.21,8.27C77.67,20.08,77.15,21.06,78.26,22.17L78.26,22.17z M54.39,14.35 c-0.58,0.58-1.53,0.58-2.12,0c-0.58-0.58-0.58-1.53,0-2.12c1.11-1.11,0.59-2.08-0.02-3.22c-1.12-2.09-2.4-4.49-0.21-8.27 c0.41-0.71,1.33-0.96,2.04-0.54c0.71,0.41,0.96,1.33,0.54,2.04c-1.36,2.35-0.49,3.96,0.26,5.37C56.05,9.8,57.06,11.68,54.39,14.35 L54.39,14.35z"/></g></svg>